# xmcd
#
# Track frame offsets:
#	150
#	38863
#	57246
#	82212
#	95565
#	117825
#	141754
#	160770
#	187429
#	209219
#
# Disc length: 3257 seconds
#
# Revision: 0
# Processed by: cddbd v1.5.2PL0 Copyright (c) Steve Scherf et al.
# Submitted via: EasyCDDAExtractor 2010.6.0.0
#
DISCID=9a0cb70a
DTITLE=Various Artist - Nagabuchi Tsuyoshi - 30th Aniversary - Premium Of The
DTITLE=Acoustic Live 2
DYEAR=1900
DGENRE=
TTITLE0=Nagabuchi Tsuyoshi - 009
TTITLE1=Nagabuchi Tsuyoshi - 010
TTITLE2=Nagabuchi Tsuyoshi - 011
TTITLE3=Nagabuchi Tsuyoshi - 012
TTITLE4=Nagabuchi Tsuyoshi - 013
TTITLE5=Nagabuchi Tsuyoshi - 014
TTITLE6=Nagabuchi Tsuyoshi - 015
TTITLE7=Acoustic - 016
TTITLE8=Nagabuchi Tsuyoshi - 017
TTITLE9=Nagabuchi Tsuyoshi - 018
EXTD=
EXTT0=
EXTT1=
EXTT2=
EXTT3=
EXTT4=
EXTT5=
EXTT6=
EXTT7=
EXTT8=
EXTT9=
PLAYORDER=
